<svg width="126" height="29" viewBox="0 0 126 29" fill="none" xmlns="http://www.w3.org/2000/svg">
<path d="M0.476 7.588C0.476 11.188 2.204 13.312 4.544 15.04L7.532 17.272C9.26 18.532 10.412 19.648 10.412 21.556C10.412 23.104 9.404 24.04 7.82 24.04C6.272 24.04 5.192 22.888 5.192 21.016V19H0.152V21.232C0.152 25.912 3.608 28.432 7.82 28.432C12.032 28.432 15.488 25.948 15.488 20.944C15.488 17.452 13.652 15.292 11.312 13.564L8.252 11.296C6.596 10.072 5.516 9.136 5.516 7.336C5.516 5.824 6.452 4.96 7.784 4.96C9.224 4.96 10.124 5.86 10.124 7.84V9.64H15.128V7.768C15.128 2.872 11.852 0.567999 7.784 0.567999C3.752 0.567999 0.476 2.548 0.476 7.588ZM23.8167 0.999998H18.6327V28H23.8167V14.968L29.3607 28H35.3007L28.7847 13.744L34.9767 0.999998H29.4327L23.8167 13.96V0.999998ZM46.5484 28V18.208L52.5964 0.999998H47.5204L43.9564 12.16L40.3924 0.999998H35.3164L41.3644 18.208V28H46.5484ZM59.9573 28V14.752L65.9333 28H71.8733L65.8973 15.76C68.9933 14.968 71.1173 12.772 71.1173 9.064V8.02C71.1173 3.448 67.8773 0.999998 63.3413 0.999998H54.7733V28H59.9573ZM62.7653 5.5C64.7093 5.5 65.9333 6.364 65.9333 8.704V9.172C65.9333 11.728 64.7093 12.736 62.7653 12.736H59.9573V5.5H62.7653ZM87.4903 23.392H79.7503V16.48H86.7703V11.872H79.7503V5.608H87.4903V0.999998H74.5663V28H87.4903V23.392ZM98.9059 0.999998H90.9139V28H95.3779V4.6L99.8419 28H107.834V0.999998H103.37V24.076L98.9059 0.999998ZM120.428 28V5.608H125.252V0.999998H110.348V5.608H115.172V28H120.428Z" fill="black" fill-opacity="0.8"/>
</svg>
